# xmcd
# 
# Track frame offsets:
#     150
#     13963
#     26569
#     42615
#     54269
#     67767
#     81197
#     94823
#     108280
#     127723
#     139128
#     154123
#     167396
#     181994
#     193807
#     207573
#     221663
#     234419
#     248547
#     261631
#     275277
#     288433
#     301968
# 
# Disc length: 4211
# 
# Revision: 1
# Processed by: cddbd v1.5.2PL0 Copyright (c) Steve Scherf et al.
# Submitted via: fre:ac v1.0.17
# 
DISCID=45107117
DTITLE=John Steinbeck - The Grapes of Wrath [CD07)
DYEAR=1939
DGENRE=Audiobook
TTITLE0=Chapter 15.01
TTITLE1=Chapter 15.02
TTITLE2=Chapter 15.03
TTITLE3=Chapter 15.04
TTITLE4=Chapter 15.05
TTITLE5=Chapter 15.06
TTITLE6=Chapter 15.07
TTITLE7=Chapter 15.08
TTITLE8=Chapter 15.09
TTITLE9=Chapter 16.01
TTITLE10=Chapter 16.02
TTITLE11=Chapter 16.03
TTITLE12=Chapter 16.04
TTITLE13=Chapter 16.05
TTITLE14=Chapter 16.06
TTITLE15=Chapter 16.07
TTITLE16=Chapter 16.08
TTITLE17=Chapter 16.09
TTITLE18=Chapter 16.10
TTITLE19=Chapter 16.11
TTITLE20=Chapter 16.12
TTITLE21=Chapter 16.13
TTITLE22=Chapter 16.14
EXTD=The Grapes of Wrath by John Steinbeck\nread by Dylan Baker recorded books 18 CDs\nnational folk country
EXTT0=
EXTT1=
EXTT2=
EXTT3=
EXTT4=
EXTT5=
EXTT6=
EXTT7=
EXTT8=
EXTT9=
EXTT10=
EXTT11=
EXTT12=
EXTT13=
EXTT14=
EXTT15=
EXTT16=
EXTT17=
EXTT18=
EXTT19=
EXTT20=
EXTT21=
EXTT22=
PLAYORDER=
